<svg xmlns="http://www.w3.org/2000/svg" viewBox="0 0 1514.59 422.94"><defs><style>.cls-1{fill:#93d500;}.cls-2{fill:#4d5a31;}.cls-3{fill:#6ba43a;}.cls-4{fill:#424143;}</style></defs><g id="Calque_2" data-name="Calque 2"><g id="OpenAPI_Logo_-_copie" data-name="OpenAPI Logo - copie"><circle class="cls-1" cx="38" cy="140.01" r="22"/><circle class="cls-2" cx="22" cy="197.02" r="22"/><circle class="cls-3" cx="68.01" cy="341.03" r="22"/><circle class="cls-2" cx="331.03" cy="373.03" r="22"/><circle class="cls-3" cx="398.03" cy="285.03" r="22"/><circle class="cls-1" cx="409.01" cy="234.97" r="22"/><circle class="cls-2" cx="366.03" cy="94.01" r="22"/><circle class="cls-1" cx="291.02" cy="34" r="22"/><circle class="cls-2" cx="169.01" cy="26" r="22"/><circle class="cls-3" cx="240.02" cy="22" r="22"/><path class="cls-1" d="M139.18,26.39a25.19,25.19,0,0,1,.76-4.12A208,208,0,0,0,31,121.23a24.05,24.05,0,0,1,24.39,9.47,181.86,181.86,0,0,1,91.85-83.33A25,25,0,0,1,139.18,26.39Z"/><path class="cls-2" d="M33.44,169.6A24.9,24.9,0,0,1,16,159.87a207.28,207.28,0,0,0-4.52,20.29,24,24,0,0,1,25.88,2.91c.83-4.66,1.86-9.24,3-13.75A25,25,0,0,1,33.44,169.6Z"/><path class="cls-3" d="M262.88,40.15a25,25,0,0,1,7.8-24.84q-6.24-1.71-12.64-3A24,24,0,0,1,254,38C257,38.63,259.94,39.36,262.88,40.15Z"/><path class="cls-2" d="M214.13,33.92a25,25,0,0,1,1.28-26A206.82,206.82,0,0,0,180.05,11a24,24,0,0,1,7.89,20.27,24.54,24.54,0,0,1-1,5A181.42,181.42,0,0,1,214.13,33.92Z"/><path class="cls-1" d="M358.87,65.25A207.16,207.16,0,0,0,310.94,31a24,24,0,0,1-11.17,23.52A180.61,180.61,0,0,1,339.13,82.4,25,25,0,0,1,358.87,65.25Z"/><path class="cls-1" d="M400.64,256.47A25,25,0,0,1,417,264.9q1.22-4.93,2.2-10c.82-5-3.71-6.53-8.18-7-5.08-.51-14-13-17.62,3.47-.38,1.91-.81,3.8-1.26,5.68A24.9,24.9,0,0,1,400.64,256.47Z"/><path class="cls-2" d="M423,212.49A206.31,206.31,0,0,0,386,96.88a24,24,0,0,1-20,16.84,180.4,180.4,0,0,1,31,97.54A25,25,0,0,1,423,212.49Z"/><path class="cls-3" d="M34.72,223.29a25,25,0,0,1-26-.63,206.37,206.37,0,0,0,39,113.62,24,24,0,0,1,20.47-16A180.6,180.6,0,0,1,34.72,223.29Z"/><path class="cls-3" d="M357.43,366.43a207.32,207.32,0,0,0,45.21-61.5,24.52,24.52,0,0,1-6.87.3,24,24,0,0,1-17.28-10.13,181.17,181.17,0,0,1-38.67,52.2A25,25,0,0,1,357.43,366.43Z"/><polygon class="cls-2" points="203.68 89.94 123.03 89.94 82.71 159.77 123.03 229.61 203.68 229.61 244 159.77 203.68 89.94"/><polygon class="cls-3" points="312.68 194.94 232.03 194.94 191.71 264.77 232.03 334.61 312.68 334.61 353 264.77 312.68 194.94"/><path class="cls-2" d="M316.3,366.61a181,181,0,0,1-221-15.8,29.05,29.05,0,0,1-18.89,18,207,207,0,0,0,255.38,18.77A27,27,0,0,1,316.3,366.61Z"/></g><g id="Text"><path class="cls-4" d="M516.29,101.7c0-49.42,36.06-84.81,85.8-84.81,49.42,0,85.48,35.39,85.48,84.81s-36.06,84.81-85.48,84.81C552.35,186.51,516.29,151.11,516.29,101.7Zm135.22,0c0-30.72-19.37-53.76-49.75-53.76S552,71,552,101.7c0,30.38,19.37,53.75,49.75,53.75S651.51,132.08,651.51,101.7Z"/><path class="cls-4" d="M705.93,183.5V19.56h76.46c35.73,0,55.09,24,55.09,52.76,0,28.38-19.7,52.42-55.09,52.42H740.65v58.43H705.93ZM801.76,72.32c0-13.69-10.69-22-24.38-22H740.65V94.35h36.73C791.4,94.35,801.76,86,801.76,72.32Z"/><path class="cls-4" d="M853.17,183.5V19.56H969V50.28H887.9V84.67h79.46v30.72H887.9v37.39H969V183.5Z"/><path class="cls-4" d="M1103.25,183.5,1025.12,76.66V183.5H990.4V19.56h35.72l75.8,102.84V19.56h34.72V183.5Z"/><path class="cls-4" d="M1283.88,183.5l-10.35-27.71h-70.11l-10.35,27.71h-39.4l63.1-163.94h43.74l63.1,163.94ZM1238.47,54.62l-25.37,70.45h51.08Z"/><path class="cls-4" d="M1332.29,183.5V19.56h76.46c35.73,0,55.09,24,55.09,52.76,0,28.38-19.69,52.42-55.09,52.42H1367v58.43h-34.73Zm96.16-111.18c0-13.69-10.68-22-24.37-22h-36.73V94.35h36.73C1417.77,94.35,1428.45,86,1428.45,72.32Z"/><path class="cls-4" d="M1479.54,183.5V19.56h35V183.5Z"/><path class="cls-3" d="M1026.87,247.47q0,1.69-1.78,7.56t-2.47,5.87l-7-3.09a18.85,18.85,0,0,0-7.68-1.54,20.41,20.41,0,0,0-15.82,7,24,24,0,0,0-6.33,16.6,23.23,23.23,0,0,0,6.33,16.28,20.58,20.58,0,0,0,15.82,7.1,22.39,22.39,0,0,0,10.19-2.54q5-2.55,4.4-2.55c.67,0,1.41,2.16,2.24,6.48a50.08,50.08,0,0,1,1.15,8.11q0,2.39-9,4.7a50.42,50.42,0,0,1-11.19,1.93,35.14,35.14,0,0,1-26.86-11.88,39.27,39.27,0,0,1-10.73-27.63q0-16.36,10.5-27.79a35.11,35.11,0,0,1,26.94-11.73,37.07,37.07,0,0,1,19.76,5.48C1026.36,246.47,1026.87,247,1026.87,247.47Z"/><path class="cls-3" d="M1106.45,279.89a39.11,39.11,0,0,1-10.58,27.55,36.44,36.44,0,0,1-53.64.08,41,41,0,0,1,0-55,36.77,36.77,0,0,1,53.57,0A38.35,38.35,0,0,1,1106.45,279.89Zm-16.29.15a23.56,23.56,0,0,0-5.79-16.05,19.23,19.23,0,0,0-15.28-7,19.56,19.56,0,0,0-15.36,7,25.12,25.12,0,0,0,.08,32.18,19.85,19.85,0,0,0,30.56,0A23.92,23.92,0,0,0,1090.16,280Z"/><path class="cls-3" d="M1191.5,209.8q0,10-.88,29.83t-.89,29.76q0,30.48,1.31,46.15l.08,1c.05.51-.65.85-2.09,1a28.24,28.24,0,0,1-4.16,0c-2.17-.15-3.17-.23-3-.23-.78,0-1.91.08-3.4.23a34,34,0,0,1-3.4.23c-.72,0-1.14-1.78-1.27-5.36s-.32-5.39-.58-5.44a4.54,4.54,0,0,0-1.16,1q-10.58,11.43-24.31,11.42a32,32,0,0,1-25.62-11.88q-9.49-11.19-9.5-27,0-16.44,9.57-27.63,10-11.73,26.17-11.73a26.65,26.65,0,0,1,17,5.71c2.21,1.91,4.4,3.83,6.56,5.79a1,1,0,0,0,.62-1.08v-25q0-2.55-.24-7.72t-.23-7.79c0-1.24.41-1.85,1.24-1.85q2.85,0,8.49-.51c3.75-.33,6.56-.5,8.41-.5C1191.07,208.18,1191.5,208.72,1191.5,209.8ZM1172.21,280a25.13,25.13,0,0,0-5.71-16.29q-6.11-7.49-15.13-7.48a19.52,19.52,0,0,0-15.67,7.41,25,25,0,0,0-5.87,16.67,23.55,23.55,0,0,0,6.1,16.13,19.58,19.58,0,0,0,15.44,7.25,18.92,18.92,0,0,0,15.28-7.33A25.17,25.17,0,0,0,1172.21,280Z"/><path class="cls-3" d="M1270.62,276q0,5.7-4.94,7.64-3.33,1.23-47.78,4.55,1,6.79,7.49,11.58a21.89,21.89,0,0,0,13.27,4.55,35.81,35.81,0,0,0,22.39-7.87l2.47-2a1.44,1.44,0,0,1,.81.16c.12.1,1.09,1.89,2.89,5.36a46.45,46.45,0,0,1,2.7,5.6q0,.46-1.23,1.77-11.36,12-29.1,12-17.91,0-28.56-10.69t-10.65-28.52a41.11,41.11,0,0,1,10.19-27.71q10.73-12.27,26.32-12.27a31.46,31.46,0,0,1,24.23,10.65Q1270.62,261.21,1270.62,276Zm-18.37-4.71a15.46,15.46,0,0,0-5.06-11.35,15.9,15.9,0,0,0-11.38-4.94q-7.11,0-12.62,5.71a18,18,0,0,0-5.52,12.82c0,1.08.92,1.62,2.78,1.62a192.88,192.88,0,0,0,27.32-2.32C1250.75,272.45,1252.25,271.94,1252.25,271.32Z"/><path class="cls-3" d="M1349.42,245.54q0,9.26-.15,27.82t-.16,27.83q0,18.38-7.87,27.09-8.27,9.25-26.4,9.26-17.52,0-28.32-6.64c-1.14-.72-1.7-1.34-1.7-1.85q0,.85,2.31-11.42c.16-.88.52-1.31,1.08-1.31a2.12,2.12,0,0,1,1,.38q11.58,6.65,23.23,6.64,7.63,0,12.66-3.4a12.61,12.61,0,0,0,5.79-11.19c0-1.08-.11-3.5-.31-7.25a27,27,0,0,1-21.77,10.42q-14.28,0-23.46-10.27-8.8-9.88-8.8-24.31,0-14.67,8.49-24.93a29,29,0,0,1,23.46-11q12.73,0,20.23,9.8,1.23,1.62,1.77,1.62c.41,0,.62-.46.62-1.39,0-.67-.05-1.74-.16-3.2s-.15-2.56-.15-3.28c0-3.09.31-4.63.93-4.63s3.29.47,8.33,1.43,7.8,1.53,8.26,1.73Q1349.42,243.92,1349.42,245.54Zm-18.52,31.8a23.11,23.11,0,0,0-4.71-14.67,17.2,17.2,0,0,0-27.09.08,24.68,24.68,0,0,0,.07,29.1,16.91,16.91,0,0,0,26.87,0A22.58,22.58,0,0,0,1330.9,277.34Z"/><path class="cls-3" d="M1429,276q0,5.7-4.94,7.64-3.33,1.23-47.78,4.55,1,6.79,7.49,11.58a21.89,21.89,0,0,0,13.27,4.55,35.81,35.81,0,0,0,22.39-7.87l2.47-2a1.44,1.44,0,0,1,.81.16c.12.1,1.09,1.89,2.89,5.36a46.45,46.45,0,0,1,2.7,5.6q0,.46-1.23,1.77-11.35,12-29.1,12-17.91,0-28.56-10.69t-10.65-28.52A41.11,41.11,0,0,1,1369,252.48q10.72-12.27,26.32-12.27a31.46,31.46,0,0,1,24.23,10.65Q1429,261.21,1429,276Zm-18.37-4.71a15.46,15.46,0,0,0-5.06-11.35,15.9,15.9,0,0,0-11.38-4.94q-7.11,0-12.62,5.71a18,18,0,0,0-5.52,12.82c0,1.08.93,1.62,2.78,1.62a192.88,192.88,0,0,0,27.32-2.32C1409.13,272.45,1410.63,271.94,1410.63,271.32Z"/><path class="cls-3" d="M1507.8,315.93c0,1.13-.51,1.7-1.54,1.7q-2.55,0-7.6-.08t-7.61-.08c-.92,0-1.39-.74-1.39-2.23q0-3.78.24-11.51t.23-11.57q0-3.09-.08-9.23t-.08-9.22q0-8.81-2.54-12.43Q1484.34,257,1476,257q-3.86,0-10.73,4.32-7.24,4.56-7.25,8.11V315.7c0,1.29-.49,1.93-1.47,1.93-1.64,0-4.12,0-7.41-.08s-5.76-.08-7.41-.08q-1.62,0-1.62-1.77,0-6.09.19-18.29t.2-18.37A124.8,124.8,0,0,0,1437,248.7a3.75,3.75,0,0,1-.23-1c0-.51.34-.87,1-1.08l8.83-1.43q8.3-1.35,8.69-1.35c.31,0,.51.41.61,1.24a49.41,49.41,0,0,0,1.78,9.64q4-3.16,10.57-7.87,8.12-4.93,15.67-4.94,14.52,0,19.84,8.41,3.93,6.18,3.94,20c0,1.6,0,4-.12,7.34s-.12,5.76-.12,7.41q0,5.16.16,15.43T1507.8,315.93Z"/><path class="cls-1" d="M566,369a10.17,10.17,0,0,1-.07,1.19,3.24,3.24,0,0,1-.22.86,1,1,0,0,1-.36.49.83.83,0,0,1-.46.14,3.22,3.22,0,0,1-1.43-.68,22.27,22.27,0,0,0-2.69-1.5,25.65,25.65,0,0,0-4-1.51,20.3,20.3,0,0,0-5.57-.68,16.31,16.31,0,0,0-6.87,1.4,14.9,14.9,0,0,0-5.16,3.86,17.48,17.48,0,0,0-3.23,5.87,25.23,25.23,0,0,0,.1,15.25,17,17,0,0,0,3.42,5.8,14.29,14.29,0,0,0,5.21,3.58,17.63,17.63,0,0,0,6.64,1.22,19.28,19.28,0,0,0,4.35-.52,16.49,16.49,0,0,0,4.09-1.56V388.74H549a1,1,0,0,1-.92-.61,4.54,4.54,0,0,1-.3-1.9,7.76,7.76,0,0,1,.07-1.16,2.66,2.66,0,0,1,.23-.79,1.33,1.33,0,0,1,.38-.45,1,1,0,0,1,.54-.14h14.71a2.38,2.38,0,0,1,.78.14,2.19,2.19,0,0,1,.72.43,1.85,1.85,0,0,1,.5.79,3.37,3.37,0,0,1,.18,1.14v17.65a3.79,3.79,0,0,1-.32,1.61,2.88,2.88,0,0,1-1.36,1.2,27.15,27.15,0,0,1-2.69,1.13A30,30,0,0,1,551,409.67a26,26,0,0,1-9.59-1.66,19.51,19.51,0,0,1-7.14-4.74,20.54,20.54,0,0,1-4.46-7.38,30.73,30.73,0,0,1,.12-19.57,21.91,21.91,0,0,1,4.69-7.63,21,21,0,0,1,7.27-4.88,24.54,24.54,0,0,1,9.39-1.74,25.37,25.37,0,0,1,5,.47,31,31,0,0,1,4.13,1.09,16.52,16.52,0,0,1,3,1.36,9.13,9.13,0,0,1,1.7,1.2,2.54,2.54,0,0,1,.65,1.07A6.57,6.57,0,0,1,566,369Z"/><path class="cls-1" d="M604.26,390.63a2.5,2.5,0,0,1-.7,2,2.44,2.44,0,0,1-1.6.59H580.74a19.82,19.82,0,0,0,.54,4.83,9.37,9.37,0,0,0,1.8,3.69,8.17,8.17,0,0,0,3.27,2.36,13.07,13.07,0,0,0,4.93.82,20.19,20.19,0,0,0,4.1-.37,23.93,23.93,0,0,0,3.11-.84q1.32-.46,2.16-.84a3.36,3.36,0,0,1,1.28-.38.87.87,0,0,1,.45.12.83.83,0,0,1,.3.38,2.5,2.5,0,0,1,.16.7,8.38,8.38,0,0,1,.06,1.09,6.44,6.44,0,0,1,0,.81,4.77,4.77,0,0,1-.09.6,1.37,1.37,0,0,1-.18.49,2,2,0,0,1-.32.41,5.48,5.48,0,0,1-1.16.64,17.3,17.3,0,0,1-2.51.88,34.32,34.32,0,0,1-3.56.77,25.62,25.62,0,0,1-4.31.34,19.93,19.93,0,0,1-7-1.11,13,13,0,0,1-5-3.29,14.07,14.07,0,0,1-3.08-5.48,25.57,25.57,0,0,1-1-7.66,24,24,0,0,1,1.08-7.46,15.67,15.67,0,0,1,3.09-5.62,13.5,13.5,0,0,1,4.89-3.54,15.88,15.88,0,0,1,6.4-1.24,15.56,15.56,0,0,1,6.47,1.22,12.3,12.3,0,0,1,4.38,3.27,13.23,13.23,0,0,1,2.52,4.84,21,21,0,0,1,.81,5.92Zm-5.94-1.75c.07-3.1-.62-5.54-2.07-7.3s-3.61-2.65-6.47-2.65a8.52,8.52,0,0,0-3.85.82,8.21,8.21,0,0,0-2.77,2.19,9.86,9.86,0,0,0-1.73,3.16,13.3,13.3,0,0,0-.69,3.78Z"/><path class="cls-1" d="M641,408.14a.83.83,0,0,1-.14.48,1.19,1.19,0,0,1-.47.34,3.53,3.53,0,0,1-.89.21,11.61,11.61,0,0,1-1.44.07,11.75,11.75,0,0,1-1.46-.07,3.74,3.74,0,0,1-.9-.21,1.15,1.15,0,0,1-.46-.34.76.76,0,0,1-.15-.48V389.27a18.46,18.46,0,0,0-.43-4.44,9,9,0,0,0-1.25-2.89,5.48,5.48,0,0,0-2.13-1.87,6.88,6.88,0,0,0-3-.64A7.65,7.65,0,0,0,623.8,381a23.84,23.84,0,0,0-4.65,4.61v22.52a.76.76,0,0,1-.15.48,1.15,1.15,0,0,1-.46.34,3.63,3.63,0,0,1-.9.21,11.75,11.75,0,0,1-1.46.07,11.61,11.61,0,0,1-1.44-.07,4,4,0,0,1-.91-.21,1,1,0,0,1-.46-.34.82.82,0,0,1-.13-.48V375.92a1,1,0,0,1,.11-.48.94.94,0,0,1,.43-.36,2.45,2.45,0,0,1,.82-.21,11.8,11.8,0,0,1,1.33-.06,11.58,11.58,0,0,1,1.3.06,2.15,2.15,0,0,1,.81.21,1.14,1.14,0,0,1,.41.36.9.9,0,0,1,.12.48v4.26a19.68,19.68,0,0,1,5.43-4.45,11.57,11.57,0,0,1,5.45-1.42,12.27,12.27,0,0,1,5.43,1.09,9.84,9.84,0,0,1,3.56,2.92,11.66,11.66,0,0,1,1.95,4.28,25.57,25.57,0,0,1,.59,5.88Z"/><path class="cls-1" d="M679.24,390.63a2.47,2.47,0,0,1-.7,2,2.44,2.44,0,0,1-1.6.59H655.73a19.84,19.84,0,0,0,.53,4.83,9.37,9.37,0,0,0,1.8,3.69,8.13,8.13,0,0,0,3.28,2.36,13,13,0,0,0,4.92.82,20.19,20.19,0,0,0,4.1-.37,23.93,23.93,0,0,0,3.11-.84q1.32-.46,2.16-.84a3.41,3.41,0,0,1,1.28-.38.84.84,0,0,1,.45.12.83.83,0,0,1,.3.38,2.46,2.46,0,0,1,.17.7c0,.3,0,.66,0,1.09a6.44,6.44,0,0,1,0,.81,4.77,4.77,0,0,1-.09.6,1.58,1.58,0,0,1-.17.49,2.47,2.47,0,0,1-.33.41,5.48,5.48,0,0,1-1.16.64,16.88,16.88,0,0,1-2.51.88,34.32,34.32,0,0,1-3.56.77,25.53,25.53,0,0,1-4.31.34,19.93,19.93,0,0,1-7-1.11,13,13,0,0,1-5-3.29,14.07,14.07,0,0,1-3.08-5.48,25.57,25.57,0,0,1-1-7.66,24,24,0,0,1,1.08-7.46,15.82,15.82,0,0,1,3.09-5.62,13.5,13.5,0,0,1,4.89-3.54,15.9,15.9,0,0,1,6.41-1.24,15.51,15.51,0,0,1,6.46,1.22,12.21,12.21,0,0,1,4.38,3.27,13.08,13.08,0,0,1,2.52,4.84,21,21,0,0,1,.81,5.92Zm-5.94-1.75c.07-3.1-.62-5.54-2.07-7.3s-3.61-2.65-6.47-2.65a8.52,8.52,0,0,0-3.85.82,8.31,8.31,0,0,0-2.77,2.19,9.86,9.86,0,0,0-1.73,3.16,13,13,0,0,0-.68,3.78Z"/><path class="cls-1" d="M707.05,378c0,.53,0,1,0,1.33a3.16,3.16,0,0,1-.14.84,1.12,1.12,0,0,1-.27.46.61.61,0,0,1-.45.17,1.91,1.91,0,0,1-.69-.17l-.93-.32c-.35-.1-.74-.21-1.17-.3a6.12,6.12,0,0,0-1.39-.14,4.72,4.72,0,0,0-1.76.35,7.08,7.08,0,0,0-1.8,1.18,14.19,14.19,0,0,0-2,2.19c-.69.9-1.46,2-2.29,3.33v21.19a.83.83,0,0,1-.14.48,1.27,1.27,0,0,1-.47.34,3.53,3.53,0,0,1-.89.21,12,12,0,0,1-1.47.07,11.44,11.44,0,0,1-1.43-.07,3.94,3.94,0,0,1-.92-.21,1,1,0,0,1-.46-.34.82.82,0,0,1-.13-.48V375.92a.83.83,0,0,1,.54-.84,2.45,2.45,0,0,1,.82-.21,11.8,11.8,0,0,1,1.33-.06,11.58,11.58,0,0,1,1.3.06,2.15,2.15,0,0,1,.81.21,1.14,1.14,0,0,1,.41.36.9.9,0,0,1,.13.48v4.69a25.32,25.32,0,0,1,2.48-3.15,13.74,13.74,0,0,1,2.2-1.91,6.84,6.84,0,0,1,2.06-1,8,8,0,0,1,2.06-.27c.31,0,.66,0,1.06.06a9.71,9.71,0,0,1,1.23.19,11,11,0,0,1,1.16.33,2.32,2.32,0,0,1,.74.35,1,1,0,0,1,.28.34,2.49,2.49,0,0,1,.13.41,4.1,4.1,0,0,1,.07.74C707,377.05,707.05,377.49,707.05,378Z"/><path class="cls-1" d="M736.54,408.17a.74.74,0,0,1-.29.64,2,2,0,0,1-.78.33,7.86,7.86,0,0,1-1.47.1,8.47,8.47,0,0,1-1.49-.1,1.76,1.76,0,0,1-.8-.33.77.77,0,0,1-.25-.64V405a16.09,16.09,0,0,1-4.71,3.51,12.54,12.54,0,0,1-5.49,1.25,15,15,0,0,1-4.6-.66,9.92,9.92,0,0,1-3.51-1.92,8.39,8.39,0,0,1-2.25-3.08,10.11,10.11,0,0,1-.81-4.15,9.58,9.58,0,0,1,1.11-4.72,9.14,9.14,0,0,1,3.19-3.33,15.81,15.81,0,0,1,5.08-2,31.62,31.62,0,0,1,6.76-.66h4.44v-2.5a12.66,12.66,0,0,0-.39-3.3A5.85,5.85,0,0,0,729,381a5.52,5.52,0,0,0-2.28-1.43,10.62,10.62,0,0,0-3.43-.48,13.53,13.53,0,0,0-3.92.52,21,21,0,0,0-3,1.14c-.87.42-1.6.8-2.19,1.15a3.09,3.09,0,0,1-1.3.52.84.84,0,0,1-.5-.15,1.08,1.08,0,0,1-.38-.43,2.16,2.16,0,0,1-.23-.73,6,6,0,0,1-.07-1,6.63,6.63,0,0,1,.12-1.42,2.06,2.06,0,0,1,.61-1,7.6,7.6,0,0,1,1.66-1.09,18.86,18.86,0,0,1,2.72-1.15,26.26,26.26,0,0,1,3.37-.86,20.65,20.65,0,0,1,3.68-.34,19.17,19.17,0,0,1,5.91.79,9.74,9.74,0,0,1,3.94,2.31,8.89,8.89,0,0,1,2.18,3.77,18.47,18.47,0,0,1,.68,5.27Zm-5.87-14.71h-5a19.27,19.27,0,0,0-4.22.41,8.79,8.79,0,0,0-3,1.22,5.05,5.05,0,0,0-1.74,1.93,5.81,5.81,0,0,0-.55,2.6,5.2,5.2,0,0,0,1.59,4,6.29,6.29,0,0,0,4.46,1.48,8.24,8.24,0,0,0,4.31-1.18,18.66,18.66,0,0,0,4.17-3.61Z"/><path class="cls-1" d="M763.45,405.77a7.27,7.27,0,0,1-.14,1.65,1.81,1.81,0,0,1-.43.89,2.9,2.9,0,0,1-.86.54,6.86,6.86,0,0,1-1.3.41q-.74.17-1.56.27a13.06,13.06,0,0,1-1.65.11,12.4,12.4,0,0,1-4.29-.66,7.06,7.06,0,0,1-2.94-2,8.33,8.33,0,0,1-1.66-3.4,19.8,19.8,0,0,1-.52-4.85V379.9h-4.51a1,1,0,0,1-.86-.58,4.05,4.05,0,0,1-.32-1.86,6.12,6.12,0,0,1,.09-1.14,3.56,3.56,0,0,1,.23-.77.86.86,0,0,1,.38-.43,1,1,0,0,1,.52-.13h4.47v-7.66a.84.84,0,0,1,.13-.46,1,1,0,0,1,.46-.38,3.42,3.42,0,0,1,.91-.23,11.61,11.61,0,0,1,1.44-.07,11.75,11.75,0,0,1,1.46.07,3.24,3.24,0,0,1,.9.23,1.2,1.2,0,0,1,.46.38.79.79,0,0,1,.15.46V375h8.26a.91.91,0,0,1,.5.13,1,1,0,0,1,.38.43,2.19,2.19,0,0,1,.23.77,7.39,7.39,0,0,1,.07,1.14,3.92,3.92,0,0,1-.32,1.86,1,1,0,0,1-.86.58H754v18a10.19,10.19,0,0,0,1,5,3.74,3.74,0,0,0,3.53,1.7,5.93,5.93,0,0,0,1.46-.16c.43-.11.81-.22,1.15-.34s.62-.23.86-.34a1.54,1.54,0,0,1,.64-.16.69.69,0,0,1,.34.09.58.58,0,0,1,.25.34,3.42,3.42,0,0,1,.16.68A6.37,6.37,0,0,1,763.45,405.77Z"/><path class="cls-1" d="M798,390.63a2.5,2.5,0,0,1-.7,2,2.44,2.44,0,0,1-1.6.59H774.44A19.82,19.82,0,0,0,775,398a9.37,9.37,0,0,0,1.8,3.69,8.17,8.17,0,0,0,3.27,2.36,13.07,13.07,0,0,0,4.93.82,20.19,20.19,0,0,0,4.1-.37,23.93,23.93,0,0,0,3.11-.84q1.32-.46,2.16-.84a3.36,3.36,0,0,1,1.28-.38.89.89,0,0,1,.45.12.83.83,0,0,1,.3.38,2.5,2.5,0,0,1,.16.7,8.38,8.38,0,0,1,.06,1.09c0,.31,0,.58,0,.81a4.77,4.77,0,0,1-.09.6,1.37,1.37,0,0,1-.18.49,2,2,0,0,1-.32.41,5.48,5.48,0,0,1-1.16.64,17.3,17.3,0,0,1-2.51.88,34.32,34.32,0,0,1-3.56.77,25.7,25.7,0,0,1-4.31.34,19.93,19.93,0,0,1-7-1.11,12.92,12.92,0,0,1-5-3.29,14.07,14.07,0,0,1-3.08-5.48,25.57,25.57,0,0,1-1-7.66,24,24,0,0,1,1.08-7.46,15.67,15.67,0,0,1,3.09-5.62,13.5,13.5,0,0,1,4.89-3.54,15.88,15.88,0,0,1,6.4-1.24,15.48,15.48,0,0,1,6.46,1.22,12.25,12.25,0,0,1,4.39,3.27,13.23,13.23,0,0,1,2.52,4.84,21,21,0,0,1,.81,5.92ZM792,388.88c.07-3.1-.62-5.54-2.07-7.3s-3.61-2.65-6.47-2.65a8.52,8.52,0,0,0-3.85.82,8.21,8.21,0,0,0-2.77,2.19,9.86,9.86,0,0,0-1.73,3.16,13.3,13.3,0,0,0-.69,3.78Z"/><path class="cls-1" d="M847.78,408.17a.74.74,0,0,1-.29.64,2,2,0,0,1-.79.33,7.67,7.67,0,0,1-1.46.1,8.47,8.47,0,0,1-1.49-.1,1.72,1.72,0,0,1-.8-.33.77.77,0,0,1-.25-.64V405a16.09,16.09,0,0,1-4.71,3.51,12.54,12.54,0,0,1-5.49,1.25,15,15,0,0,1-4.6-.66,9.84,9.84,0,0,1-3.51-1.92,8.53,8.53,0,0,1-2.26-3.08,10.27,10.27,0,0,1-.8-4.15,9.58,9.58,0,0,1,1.11-4.72,9.2,9.2,0,0,1,3.18-3.33,16,16,0,0,1,5.09-2,31.62,31.62,0,0,1,6.76-.66h4.44v-2.5a12.23,12.23,0,0,0-.4-3.3,5.63,5.63,0,0,0-1.27-2.38,5.42,5.42,0,0,0-2.27-1.43,10.62,10.62,0,0,0-3.43-.48,13.48,13.48,0,0,0-3.92.52,21.57,21.57,0,0,0-3,1.14c-.87.42-1.59.8-2.18,1.15a3.07,3.07,0,0,1-1.31.52.87.87,0,0,1-.5-.15,1.15,1.15,0,0,1-.37-.43,2,2,0,0,1-.23-.73,7,7,0,0,1,0-2.4,2.06,2.06,0,0,1,.61-1,7.36,7.36,0,0,1,1.66-1.09,18.86,18.86,0,0,1,2.72-1.15,26.26,26.26,0,0,1,3.37-.86,20.57,20.57,0,0,1,3.68-.34,19.22,19.22,0,0,1,5.91.79,9.63,9.63,0,0,1,3.93,2.31,8.91,8.91,0,0,1,2.19,3.77,18.47,18.47,0,0,1,.68,5.27Zm-5.87-14.71h-5a19.27,19.27,0,0,0-4.22.41,8.79,8.79,0,0,0-3,1.22,5.05,5.05,0,0,0-1.74,1.93,5.81,5.81,0,0,0-.55,2.6,5.2,5.2,0,0,0,1.59,4,6.29,6.29,0,0,0,4.46,1.48,8.27,8.27,0,0,0,4.31-1.18,18.88,18.88,0,0,0,4.17-3.61Z"/><path class="cls-1" d="M886.36,408.14a.83.83,0,0,1-.14.48,1.19,1.19,0,0,1-.47.34,3.53,3.53,0,0,1-.89.21,11.44,11.44,0,0,1-1.43.07,11.82,11.82,0,0,1-1.47-.07,3.74,3.74,0,0,1-.9-.21,1.15,1.15,0,0,1-.46-.34.76.76,0,0,1-.15-.48V389.27a19.06,19.06,0,0,0-.42-4.44,9.2,9.2,0,0,0-1.26-2.89,5.48,5.48,0,0,0-2.13-1.87,6.88,6.88,0,0,0-3-.64,7.65,7.65,0,0,0-4.44,1.58,23.84,23.84,0,0,0-4.65,4.61v22.52a.83.83,0,0,1-.14.48,1.27,1.27,0,0,1-.47.34,3.64,3.64,0,0,1-.89.21,12,12,0,0,1-1.47.07,11.44,11.44,0,0,1-1.43-.07,3.94,3.94,0,0,1-.92-.21,1,1,0,0,1-.46-.34.82.82,0,0,1-.13-.48V375.92a.83.83,0,0,1,.54-.84,2.45,2.45,0,0,1,.82-.21,11.8,11.8,0,0,1,1.33-.06,11.58,11.58,0,0,1,1.3.06,2.15,2.15,0,0,1,.81.21,1.14,1.14,0,0,1,.41.36.9.9,0,0,1,.13.48v4.26a19.66,19.66,0,0,1,5.42-4.45,11.58,11.58,0,0,1,5.46-1.42,12.26,12.26,0,0,1,5.42,1.09,9.76,9.76,0,0,1,3.56,2.92,11.5,11.5,0,0,1,1.95,4.28,25.57,25.57,0,0,1,.59,5.88Z"/><path class="cls-1" d="M910.45,409l-4.3,11.85a1.59,1.59,0,0,1-1.09.87,8.39,8.39,0,0,1-2.66.31,10.06,10.06,0,0,1-1.51-.09,2.06,2.06,0,0,1-.88-.31.78.78,0,0,1-.34-.57,1.87,1.87,0,0,1,.18-.86l4.44-11.2a1.86,1.86,0,0,1-.61-.47,1.74,1.74,0,0,1-.39-.68L891.8,377.1a3.6,3.6,0,0,1-.29-1.18.88.88,0,0,1,.29-.68,1.85,1.85,0,0,1,.93-.34,13,13,0,0,1,1.72-.09c.71,0,1.28,0,1.68.06a3.53,3.53,0,0,1,1,.19,1.06,1.06,0,0,1,.52.42,5.2,5.2,0,0,1,.34.73l9.2,25.84h.1l8.88-26a1.52,1.52,0,0,1,.52-.88,2.31,2.31,0,0,1,.91-.29,12.87,12.87,0,0,1,1.75-.09,12.34,12.34,0,0,1,1.65.09,2,2,0,0,1,.95.34.85.85,0,0,1,.3.68A3.62,3.62,0,0,1,922,377Z"/><path class="cls-1" d="M946.06,405.77a7.9,7.9,0,0,1-.14,1.65,1.9,1.9,0,0,1-.43.89,3,3,0,0,1-.86.54,7,7,0,0,1-1.31.41q-.74.17-1.56.27a12.91,12.91,0,0,1-1.64.11,12.5,12.5,0,0,1-4.3-.66,7,7,0,0,1-2.93-2,8.22,8.22,0,0,1-1.67-3.4,20.3,20.3,0,0,1-.52-4.85V379.9h-4.5a1,1,0,0,1-.86-.58,3.9,3.9,0,0,1-.33-1.86,6.12,6.12,0,0,1,.09-1.14,3,3,0,0,1,.24-.77.84.84,0,0,1,.37-.43,1,1,0,0,1,.52-.13h4.47v-7.66a.94.94,0,0,1,.13-.46,1.07,1.07,0,0,1,.46-.38,3.51,3.51,0,0,1,.92-.23,11.44,11.44,0,0,1,1.43-.07,11.82,11.82,0,0,1,1.47.07,3.07,3.07,0,0,1,.89.23,1.24,1.24,0,0,1,.47.38.86.86,0,0,1,.14.46V375h8.27a.91.91,0,0,1,.5.13,1,1,0,0,1,.37.43,2.41,2.41,0,0,1,.24.77,7.39,7.39,0,0,1,.07,1.14,4.05,4.05,0,0,1-.32,1.86,1,1,0,0,1-.86.58h-8.27v18a10.31,10.31,0,0,0,1,5,3.75,3.75,0,0,0,3.53,1.7,6,6,0,0,0,1.47-.16c.43-.11.81-.22,1.14-.34s.62-.23.86-.34a1.55,1.55,0,0,1,.65-.16.72.72,0,0,1,.34.09.62.62,0,0,1,.25.34,4.31,4.31,0,0,1,.16.68A6.37,6.37,0,0,1,946.06,405.77Z"/><path class="cls-1" d="M981.6,408.14a.83.83,0,0,1-.14.48,1.19,1.19,0,0,1-.47.34,3.53,3.53,0,0,1-.89.21,11.61,11.61,0,0,1-1.44.07,11.75,11.75,0,0,1-1.46-.07,3.74,3.74,0,0,1-.9-.21,1.15,1.15,0,0,1-.46-.34.76.76,0,0,1-.15-.48V389.27a18.46,18.46,0,0,0-.43-4.44,9,9,0,0,0-1.25-2.89,5.48,5.48,0,0,0-2.13-1.87,6.88,6.88,0,0,0-3-.64,7.65,7.65,0,0,0-4.44,1.58,23.84,23.84,0,0,0-4.65,4.61v22.52a.76.76,0,0,1-.15.48,1.15,1.15,0,0,1-.46.34,3.63,3.63,0,0,1-.9.21,11.75,11.75,0,0,1-1.46.07,11.33,11.33,0,0,1-1.43-.07,3.94,3.94,0,0,1-.92-.21,1,1,0,0,1-.46-.34.82.82,0,0,1-.13-.48V360.32a.91.91,0,0,1,.13-.5.92.92,0,0,1,.46-.36,3.45,3.45,0,0,1,.92-.22,13.6,13.6,0,0,1,1.43-.07,14.09,14.09,0,0,1,1.46.07,3.18,3.18,0,0,1,.9.22,1,1,0,0,1,.46.36.84.84,0,0,1,.15.5v19.29a18.94,18.94,0,0,1,5.12-4,11.35,11.35,0,0,1,5.19-1.31,12.26,12.26,0,0,1,5.42,1.09,9.84,9.84,0,0,1,3.56,2.92,11.66,11.66,0,0,1,2,4.28,25.82,25.82,0,0,1,.59,5.92Z"/><path class="cls-1" d="M999,365a3.86,3.86,0,0,1-.79,2.83,4.23,4.23,0,0,1-2.9.75,4.14,4.14,0,0,1-2.84-.73,3.8,3.8,0,0,1-.77-2.78,3.9,3.9,0,0,1,.78-2.82,4.25,4.25,0,0,1,2.9-.75,4.18,4.18,0,0,1,2.85.73A3.82,3.82,0,0,1,999,365Zm-.68,43.1a.76.76,0,0,1-.15.48,1.15,1.15,0,0,1-.46.34,3.63,3.63,0,0,1-.9.21,11.75,11.75,0,0,1-1.46.07,11.33,11.33,0,0,1-1.43-.07A3.94,3.94,0,0,1,993,409a1,1,0,0,1-.46-.34.82.82,0,0,1-.13-.48V375.92a.84.84,0,0,1,.13-.46.92.92,0,0,1,.46-.36,3.13,3.13,0,0,1,.92-.21,11.08,11.08,0,0,1,1.43-.08,11.49,11.49,0,0,1,1.46.08,2.91,2.91,0,0,1,.9.21,1,1,0,0,1,.46.36.79.79,0,0,1,.15.46Z"/><path class="cls-1" d="M1036.93,408.14a.83.83,0,0,1-.14.48,1.19,1.19,0,0,1-.47.34,3.53,3.53,0,0,1-.89.21,11.44,11.44,0,0,1-1.43.07,11.82,11.82,0,0,1-1.47-.07,3.53,3.53,0,0,1-.89-.21,1.19,1.19,0,0,1-.47-.34.76.76,0,0,1-.14-.48V389.27a19,19,0,0,0-.43-4.44,9.2,9.2,0,0,0-1.26-2.89,5.39,5.39,0,0,0-2.12-1.87,6.92,6.92,0,0,0-3-.64,7.65,7.65,0,0,0-4.44,1.58,23.84,23.84,0,0,0-4.65,4.61v22.52a.83.83,0,0,1-.14.48,1.19,1.19,0,0,1-.47.34,3.53,3.53,0,0,1-.89.21,11.92,11.92,0,0,1-1.47.07,11.44,11.44,0,0,1-1.43-.07,3.84,3.84,0,0,1-.91-.21,1,1,0,0,1-.47-.34.9.9,0,0,1-.13-.48V375.92a.83.83,0,0,1,.54-.84,2.51,2.51,0,0,1,.82-.21,14.55,14.55,0,0,1,2.64,0,2.15,2.15,0,0,1,.8.21,1.14,1.14,0,0,1,.41.36.82.82,0,0,1,.13.48v4.26a19.66,19.66,0,0,1,5.42-4.45,11.58,11.58,0,0,1,5.46-1.42,12.23,12.23,0,0,1,5.42,1.09,9.76,9.76,0,0,1,3.56,2.92,11.5,11.5,0,0,1,1.95,4.28,25,25,0,0,1,.59,5.88Z"/><path class="cls-1" d="M1074.62,377.39a3.57,3.57,0,0,1-.34,1.81,1,1,0,0,1-.88.55h-4.61a7.38,7.38,0,0,1,1.75,2.85,10.65,10.65,0,0,1,.5,3.24,12.92,12.92,0,0,1-.89,4.94,9.94,9.94,0,0,1-2.56,3.63,11.37,11.37,0,0,1-4,2.27,15.38,15.38,0,0,1-5.08.79,13.1,13.1,0,0,1-3.74-.52,7.86,7.86,0,0,1-2.74-1.31,5.48,5.48,0,0,0-1,1.47,4.12,4.12,0,0,0-.42,1.9,2.44,2.44,0,0,0,1.17,2.07,5.63,5.63,0,0,0,3.09.9l8.41.36a17.28,17.28,0,0,1,4.41.66,10.88,10.88,0,0,1,3.47,1.68,7.7,7.7,0,0,1,2.29,2.69,7.91,7.91,0,0,1,.82,3.7,9.69,9.69,0,0,1-3.77,7.75,14.51,14.51,0,0,1-4.89,2.4,25.1,25.1,0,0,1-7,.87,28.72,28.72,0,0,1-6.64-.66,14.22,14.22,0,0,1-4.5-1.81,7.08,7.08,0,0,1-2.54-2.73,7.8,7.8,0,0,1-.78-3.46,9.15,9.15,0,0,1,.28-2.29,8.28,8.28,0,0,1,.88-2.11,10,10,0,0,1,1.47-1.92,19.18,19.18,0,0,1,2-1.8,6.4,6.4,0,0,1-2.6-2.26,5.45,5.45,0,0,1-.84-2.93,8.25,8.25,0,0,1,.9-3.9,12.59,12.59,0,0,1,2.22-3.08,10.53,10.53,0,0,1-1.76-3,11.17,11.17,0,0,1-.64-4,12.54,12.54,0,0,1,.93-4.94,10.46,10.46,0,0,1,2.58-3.68,11.29,11.29,0,0,1,4-2.31,15.12,15.12,0,0,1,5-.81,21.32,21.32,0,0,1,2.74.17,18.31,18.31,0,0,1,2.38.44h9.73a1,1,0,0,1,.92.59A4.2,4.2,0,0,1,1074.62,377.39Zm-6.26,34a3.63,3.63,0,0,0-1.7-3.2,8.69,8.69,0,0,0-4.6-1.2l-8.34-.29a15.7,15.7,0,0,0-1.88,1.7,9,9,0,0,0-1.16,1.54,4.77,4.77,0,0,0-.59,1.45,6.56,6.56,0,0,0-.17,1.47,3.79,3.79,0,0,0,2.37,3.52,14.75,14.75,0,0,0,6.58,1.2,16.33,16.33,0,0,0,4.49-.52,8.53,8.53,0,0,0,2.92-1.37,5.07,5.07,0,0,0,1.59-2A5.66,5.66,0,0,0,1068.36,411.39Zm-3-25.52a7,7,0,0,0-1.81-5.13,6.88,6.88,0,0,0-5.14-1.85,7.12,7.12,0,0,0-3,.58,5.84,5.84,0,0,0-2.11,1.57,6.63,6.63,0,0,0-1.25,2.31,9.18,9.18,0,0,0-.41,2.74,6.29,6.29,0,0,0,6.87,6.83,7.64,7.64,0,0,0,3-.55,5.68,5.68,0,0,0,2.13-1.54,6.45,6.45,0,0,0,1.25-2.27A8.65,8.65,0,0,0,1065.39,385.87Z"/><path class="cls-1" d="M1116.42,362.68a6.39,6.39,0,0,1-.07,1.09,4,4,0,0,1-.16.66.61.61,0,0,1-.23.34.69.69,0,0,1-.36.09,1.61,1.61,0,0,1-.63-.16l-.91-.36a9.09,9.09,0,0,0-1.27-.35,7.8,7.8,0,0,0-1.7-.16,5.44,5.44,0,0,0-2.25.42,3.45,3.45,0,0,0-1.51,1.35,6.59,6.59,0,0,0-.82,2.36,20.79,20.79,0,0,0-.25,3.52V375h7.19a.88.88,0,0,1,.49.13,1,1,0,0,1,.35.43,2.68,2.68,0,0,1,.25.77,6.12,6.12,0,0,1,.09,1.14,3.92,3.92,0,0,1-.32,1.86,1,1,0,0,1-.86.58h-7.19v28.24a.83.83,0,0,1-.14.48,1.2,1.2,0,0,1-.49.34,3.84,3.84,0,0,1-.91.21,14.64,14.64,0,0,1-2.86,0,3.94,3.94,0,0,1-.92-.21,1.23,1.23,0,0,1-.48-.34.83.83,0,0,1-.14-.48V379.9h-4.55a.91.91,0,0,1-.86-.58,4.46,4.46,0,0,1-.28-1.86,7.39,7.39,0,0,1,.07-1.14,3.13,3.13,0,0,1,.21-.77.93.93,0,0,1,.36-.43.91.91,0,0,1,.5-.13h4.55v-3.33a23.68,23.68,0,0,1,.62-5.78,10,10,0,0,1,1.92-3.95,7.64,7.64,0,0,1,3.24-2.27,14,14,0,0,1,7-.51,10.21,10.21,0,0,1,1.83.51,2.84,2.84,0,0,1,.86.48,1.68,1.68,0,0,1,.35.55,3,3,0,0,1,.2.83A9.8,9.8,0,0,1,1116.42,362.68Z"/><path class="cls-1" d="M1140,378c0,.53,0,1,0,1.33a3.1,3.1,0,0,1-.15.84,1.24,1.24,0,0,1-.26.46.61.61,0,0,1-.45.17,2,2,0,0,1-.7-.17c-.27-.1-.58-.21-.93-.32s-.73-.21-1.16-.3a6.21,6.21,0,0,0-1.4-.14,4.63,4.63,0,0,0-1.75.35,7.12,7.12,0,0,0-1.81,1.18,15.28,15.28,0,0,0-2,2.19c-.69.9-1.45,2-2.29,3.33v21.19a.83.83,0,0,1-.14.48,1.23,1.23,0,0,1-.46.34,3.74,3.74,0,0,1-.9.21,11.82,11.82,0,0,1-1.47.07,11.44,11.44,0,0,1-1.43-.07,3.84,3.84,0,0,1-.91-.21,1.06,1.06,0,0,1-.47-.34.9.9,0,0,1-.12-.48V375.92a1,1,0,0,1,.1-.48,1.07,1.07,0,0,1,.43-.36,2.51,2.51,0,0,1,.83-.21,11.48,11.48,0,0,1,1.32-.06,11.78,11.78,0,0,1,1.31.06,2.15,2.15,0,0,1,.8.21,1.28,1.28,0,0,1,.42.36.9.9,0,0,1,.12.48v4.69a24.39,24.39,0,0,1,2.49-3.15,13.32,13.32,0,0,1,2.2-1.91,6.73,6.73,0,0,1,2.06-1,8,8,0,0,1,2.06-.27c.3,0,.66,0,1,.06a9.85,9.85,0,0,1,1.24.19c.42.1.81.21,1.16.33a2.25,2.25,0,0,1,.73.35,1,1,0,0,1,.29.34,1.83,1.83,0,0,1,.12.41,5,5,0,0,1,.08.74C1140,377.05,1140,377.49,1140,378Z"/><path class="cls-1" d="M1175.48,391.67a24.19,24.19,0,0,1-1,7.25,15.84,15.84,0,0,1-3.1,5.71,14.07,14.07,0,0,1-5.15,3.74,18,18,0,0,1-7.18,1.34,18.74,18.74,0,0,1-6.92-1.18,12.59,12.59,0,0,1-4.92-3.44,14.55,14.55,0,0,1-2.94-5.47,25.59,25.59,0,0,1-1-7.31,24.46,24.46,0,0,1,1-7.24,15.78,15.78,0,0,1,3.07-5.71,13.93,13.93,0,0,1,5.14-3.72,18,18,0,0,1,7.19-1.33,18.76,18.76,0,0,1,6.93,1.18,12.69,12.69,0,0,1,4.92,3.44,14.71,14.71,0,0,1,3,5.47A24.77,24.77,0,0,1,1175.48,391.67Zm-6.12.39a24.31,24.31,0,0,0-.49-4.93,12,12,0,0,0-1.61-4.08,8,8,0,0,0-3-2.78,11.58,11.58,0,0,0-9.3-.09,8.29,8.29,0,0,0-3.12,2.63,11.92,11.92,0,0,0-1.83,4,20.29,20.29,0,0,0-.59,5.08,24.61,24.61,0,0,0,.48,5,11.81,11.81,0,0,0,1.63,4.06,8.11,8.11,0,0,0,3,2.75,9.94,9.94,0,0,0,4.77,1,10.2,10.2,0,0,0,4.51-.93,8.24,8.24,0,0,0,3.14-2.61,11.43,11.43,0,0,0,1.81-4A21.44,21.44,0,0,0,1169.36,392.06Z"/><path class="cls-1" d="M1232,408.14a.76.76,0,0,1-.15.48,1.15,1.15,0,0,1-.46.34,3.74,3.74,0,0,1-.9.21,11.44,11.44,0,0,1-1.43.07,11.82,11.82,0,0,1-1.47-.07,4,4,0,0,1-.91-.21,1.1,1.1,0,0,1-.48-.34.76.76,0,0,1-.15-.48V388.56a18.69,18.69,0,0,0-.35-3.73,8.45,8.45,0,0,0-1.15-2.89,5.34,5.34,0,0,0-2-1.87,6.17,6.17,0,0,0-2.87-.64,6.72,6.72,0,0,0-4.09,1.58,27.58,27.58,0,0,0-4.53,4.61v22.52a.76.76,0,0,1-.15.48,1.1,1.1,0,0,1-.48.34,4,4,0,0,1-.91.21,11.44,11.44,0,0,1-1.43.07,11.69,11.69,0,0,1-1.42-.07,4,4,0,0,1-.93-.21,1,1,0,0,1-.46-.34.82.82,0,0,1-.13-.48V388.56a16.62,16.62,0,0,0-.39-3.73,9.12,9.12,0,0,0-1.18-2.89,5.47,5.47,0,0,0-2-1.87,6,6,0,0,0-2.84-.64,6.82,6.82,0,0,0-4.12,1.58,26.81,26.81,0,0,0-4.51,4.61v22.52a.83.83,0,0,1-.14.48,1.19,1.19,0,0,1-.47.34,3.53,3.53,0,0,1-.89.21,11.82,11.82,0,0,1-1.47.07,11.44,11.44,0,0,1-1.43-.07,3.84,3.84,0,0,1-.91-.21,1,1,0,0,1-.47-.34.9.9,0,0,1-.13-.48V375.92a.83.83,0,0,1,.54-.84,2.51,2.51,0,0,1,.83-.21,11.48,11.48,0,0,1,1.32-.06,11.91,11.91,0,0,1,1.31.06,2.15,2.15,0,0,1,.8.21,1.14,1.14,0,0,1,.41.36.82.82,0,0,1,.13.48v4.26a20.67,20.67,0,0,1,5.28-4.45,10.5,10.5,0,0,1,5.17-1.42,12.92,12.92,0,0,1,3.6.47,9.81,9.81,0,0,1,2.81,1.3,8.79,8.79,0,0,1,2.07,2,11.56,11.56,0,0,1,1.43,2.59,34.6,34.6,0,0,1,3.06-3,18.76,18.76,0,0,1,2.79-2,11.69,11.69,0,0,1,2.62-1.09,10.11,10.11,0,0,1,2.56-.34,11.39,11.39,0,0,1,5.22,1.09,9.45,9.45,0,0,1,3.42,2.92,11.7,11.7,0,0,1,1.86,4.28,23.34,23.34,0,0,1,.56,5.17Z"/><path class="cls-1" d="M1298.78,385.34a35.71,35.71,0,0,1-1.33,10.13,21.21,21.21,0,0,1-4,7.67,17.31,17.31,0,0,1-6.61,4.87,23.42,23.42,0,0,1-9.27,1.7,23.76,23.76,0,0,1-9-1.56,15.93,15.93,0,0,1-6.3-4.52,19.43,19.43,0,0,1-3.71-7.38,38.18,38.18,0,0,1-1.21-10.13,35.14,35.14,0,0,1,1.32-9.95,20.76,20.76,0,0,1,4-7.6,17.57,17.57,0,0,1,6.63-4.83,23.24,23.24,0,0,1,9.27-1.7,23.74,23.74,0,0,1,8.91,1.53,16.14,16.14,0,0,1,6.31,4.5,18.94,18.94,0,0,1,3.76,7.3A36.3,36.3,0,0,1,1298.78,385.34Zm-6.52.43a36.55,36.55,0,0,0-.69-7.32,16.72,16.72,0,0,0-2.33-5.87,11.18,11.18,0,0,0-4.34-3.89,14.6,14.6,0,0,0-6.72-1.39,13.74,13.74,0,0,0-6.72,1.5,12.72,12.72,0,0,0-4.42,4,16.73,16.73,0,0,0-2.43,5.85,32.73,32.73,0,0,0-.73,7,39.07,39.07,0,0,0,.68,7.52,16.72,16.72,0,0,0,2.29,5.92,11,11,0,0,0,4.31,3.87,14.75,14.75,0,0,0,6.77,1.38,13.91,13.91,0,0,0,6.79-1.51,12.11,12.11,0,0,0,4.43-4.06,17.22,17.22,0,0,0,2.4-5.92A34.66,34.66,0,0,0,1292.26,385.77Z"/><path class="cls-1" d="M1337.47,391.53a29,29,0,0,1-.92,7.59,16.36,16.36,0,0,1-2.68,5.7,12,12,0,0,1-4.38,3.62,13.51,13.51,0,0,1-6,1.27,11.57,11.57,0,0,1-2.65-.29,10.25,10.25,0,0,1-2.38-.89,13.85,13.85,0,0,1-2.31-1.54c-.76-.62-1.57-1.35-2.43-2.18v16.1a.84.84,0,0,1-.15.5,1,1,0,0,1-.46.36,2.91,2.91,0,0,1-.9.21,11.49,11.49,0,0,1-1.46.08,11.08,11.08,0,0,1-1.43-.08,3.13,3.13,0,0,1-.92-.21.87.87,0,0,1-.46-.36.91.91,0,0,1-.13-.5v-45a1.14,1.14,0,0,1,.11-.52.87.87,0,0,1,.43-.34,2.75,2.75,0,0,1,.82-.19,10.55,10.55,0,0,1,1.22-.06,10.26,10.26,0,0,1,1.23.06,2.76,2.76,0,0,1,.81.19,1.11,1.11,0,0,1,.45.34,1,1,0,0,1,.12.52v4.33a34.35,34.35,0,0,1,2.83-2.61,17.06,17.06,0,0,1,2.74-1.84,12.91,12.91,0,0,1,2.82-1.11,13.36,13.36,0,0,1,9,1,11.26,11.26,0,0,1,4,3.73,16.54,16.54,0,0,1,2.27,5.49A29.57,29.57,0,0,1,1337.47,391.53Zm-6.12.68a29.76,29.76,0,0,0-.38-4.78,13.8,13.8,0,0,0-1.3-4.1,7.63,7.63,0,0,0-2.46-2.86,6.6,6.6,0,0,0-3.86-1.07,8,8,0,0,0-2.27.33,9.28,9.28,0,0,0-2.26,1.08,16.05,16.05,0,0,0-2.42,1.93,29,29,0,0,0-2.66,2.95v12.82a25.63,25.63,0,0,0,4.64,4.54,7.81,7.81,0,0,0,4.61,1.58,6.72,6.72,0,0,0,3.84-1.08,8,8,0,0,0,2.59-2.86,14.25,14.25,0,0,0,1.46-4A21.75,21.75,0,0,0,1331.35,392.21Z"/><path class="cls-1" d="M1373.83,390.63a2.47,2.47,0,0,1-.7,2,2.44,2.44,0,0,1-1.6.59h-21.21a19.82,19.82,0,0,0,.54,4.83,9.22,9.22,0,0,0,1.79,3.69,8.13,8.13,0,0,0,3.28,2.36,13,13,0,0,0,4.92.82,20.19,20.19,0,0,0,4.1-.37,23.93,23.93,0,0,0,3.11-.84q1.32-.46,2.16-.84a3.41,3.41,0,0,1,1.28-.38.84.84,0,0,1,.45.12.83.83,0,0,1,.3.38,2.46,2.46,0,0,1,.17.7c0,.3,0,.66,0,1.09a6.44,6.44,0,0,1,0,.81,4.77,4.77,0,0,1-.09.6,1.58,1.58,0,0,1-.17.49,2.47,2.47,0,0,1-.33.41,5.21,5.21,0,0,1-1.16.64,17.12,17.12,0,0,1-2.5.88,35.14,35.14,0,0,1-3.57.77,25.53,25.53,0,0,1-4.31.34,19.93,19.93,0,0,1-7-1.11,13,13,0,0,1-5-3.29,14.2,14.2,0,0,1-3.08-5.48,25.59,25.59,0,0,1-1-7.66,24,24,0,0,1,1.07-7.46,15.84,15.84,0,0,1,3.1-5.62,13.38,13.38,0,0,1,4.88-3.54,15.9,15.9,0,0,1,6.41-1.24,15.51,15.51,0,0,1,6.46,1.22,12.21,12.21,0,0,1,4.38,3.27,13.25,13.25,0,0,1,2.53,4.84,21.33,21.33,0,0,1,.8,5.92Zm-5.94-1.75c.07-3.1-.62-5.54-2.07-7.3s-3.61-2.65-6.47-2.65a8.55,8.55,0,0,0-3.85.82,8.31,8.31,0,0,0-2.77,2.19,9.86,9.86,0,0,0-1.73,3.16,13,13,0,0,0-.68,3.78Z"/><path class="cls-1" d="M1410.55,408.14a.83.83,0,0,1-.14.48,1.19,1.19,0,0,1-.47.34,3.53,3.53,0,0,1-.89.21,11.44,11.44,0,0,1-1.43.07,11.82,11.82,0,0,1-1.47-.07,3.74,3.74,0,0,1-.9-.21,1.15,1.15,0,0,1-.46-.34.76.76,0,0,1-.14-.48V389.27a19,19,0,0,0-.43-4.44,9.2,9.2,0,0,0-1.26-2.89,5.48,5.48,0,0,0-2.13-1.87,6.88,6.88,0,0,0-3-.64,7.65,7.65,0,0,0-4.44,1.58,23.84,23.84,0,0,0-4.65,4.61v22.52a.83.83,0,0,1-.14.48,1.19,1.19,0,0,1-.47.34,3.53,3.53,0,0,1-.89.21,12,12,0,0,1-1.47.07,11.44,11.44,0,0,1-1.43-.07,4.07,4.07,0,0,1-.92-.21,1,1,0,0,1-.46-.34.9.9,0,0,1-.13-.48V375.92a.83.83,0,0,1,.54-.84,2.51,2.51,0,0,1,.82-.21,11.8,11.8,0,0,1,1.33-.06,11.58,11.58,0,0,1,1.3.06,2.15,2.15,0,0,1,.81.21,1.14,1.14,0,0,1,.41.36.9.9,0,0,1,.13.48v4.26a19.66,19.66,0,0,1,5.42-4.45,11.58,11.58,0,0,1,5.46-1.42,12.26,12.26,0,0,1,5.42,1.09,9.76,9.76,0,0,1,3.56,2.92,11.5,11.5,0,0,1,2,4.28,25.57,25.57,0,0,1,.59,5.88Z"/><path class="cls-1" d="M1456.69,406.85a4.27,4.27,0,0,1,.3,1.27.88.88,0,0,1-.27.73,1.73,1.73,0,0,1-1,.32,16.66,16.66,0,0,1-1.77.07c-.74,0-1.33,0-1.77-.05a4.3,4.3,0,0,1-1-.18,1,1,0,0,1-.5-.34,2.85,2.85,0,0,1-.31-.53l-4-11.28h-19.26L1423.4,408a1.85,1.85,0,0,1-.29.56,1.45,1.45,0,0,1-.52.39,3.06,3.06,0,0,1-1,.23,14.44,14.44,0,0,1-1.63.07,13.07,13.07,0,0,1-1.7-.09,1.69,1.69,0,0,1-.93-.34.89.89,0,0,1-.25-.73,4.41,4.41,0,0,1,.3-1.27l15.54-43a1.8,1.8,0,0,1,.37-.64,1.59,1.59,0,0,1,.68-.4,5.17,5.17,0,0,1,1.15-.19q.69-.06,1.77-.06c.76,0,1.4,0,1.9.06a5.58,5.58,0,0,1,1.21.19,1.67,1.67,0,0,1,.72.41,1.77,1.77,0,0,1,.39.67Zm-19.94-38h0l-8,23.09h16.11Z"/><path class="cls-1" d="M1492.87,376.28a16.2,16.2,0,0,1-1.15,6.26,13.15,13.15,0,0,1-3.27,4.76,14.59,14.59,0,0,1-5.23,3.05,22.74,22.74,0,0,1-7.39,1.07h-5.26V408.1a.79.79,0,0,1-.16.5,1.06,1.06,0,0,1-.5.34,5.47,5.47,0,0,1-.93.21,12.3,12.3,0,0,1-3,0,6,6,0,0,1-1-.21,1,1,0,0,1-.5-.34.84.84,0,0,1-.14-.5V365.36a2.5,2.5,0,0,1,.75-2,2.62,2.62,0,0,1,1.68-.6h9.91c1,0,2,0,2.89.12a27.31,27.31,0,0,1,3.25.54,13.26,13.26,0,0,1,3.83,1.54,11.77,11.77,0,0,1,5.41,6.58A15.12,15.12,0,0,1,1492.87,376.28Zm-6.48.5a9.64,9.64,0,0,0-1.05-4.72,7.36,7.36,0,0,0-2.62-2.83,8.79,8.79,0,0,0-3.22-1.18,21.37,21.37,0,0,0-3.24-.25h-5.69v18.57h5.55a12.8,12.8,0,0,0,4.63-.71,8.67,8.67,0,0,0,3.1-2,8.29,8.29,0,0,0,1.9-3A11.15,11.15,0,0,0,1486.39,376.78Z"/><path class="cls-1" d="M1508.44,408.1a.92.92,0,0,1-.14.5,1,1,0,0,1-.51.34,5.62,5.62,0,0,1-.94.21,12.21,12.21,0,0,1-3,0,5.68,5.68,0,0,1-1-.21.92.92,0,0,1-.5-.34.84.84,0,0,1-.15-.5V363.65a.85.85,0,0,1,.16-.5,1,1,0,0,1,.54-.34,5.24,5.24,0,0,1,1-.22,9.44,9.44,0,0,1,1.41-.09,10.24,10.24,0,0,1,1.49.09,4.68,4.68,0,0,1,.94.22.94.94,0,0,1,.51.34.92.92,0,0,1,.14.5Z"/></g></g></svg>